HIERARCHY
ROOT root
{
	OFFSET 0.000000 0.000000 0.000000
	CHANNELS 6 Xposition Yposition Zposition Zrotation Yrotation Xrotation
	JOINT lhip
	{
		OFFSET 0.058581 -0.082280 -0.017664
		CHANNELS 3 Zrotation Yrotation Xrotation
		JOINT lknee
		{
			OFFSET 0.043451 -0.386469 0.008037
			CHANNELS 3 Zrotation Yrotation Xrotation
			JOINT lankle
			{
				OFFSET -0.014790 -0.426874 -0.037428
				CHANNELS 3 Zrotation Yrotation Xrotation
				JOINT ltoe
				{
					OFFSET 0.041054 -0.060286 0.122042
					CHANNELS 3 Zrotation Yrotation Xrotation
					End Site
					{
						OFFSET 0.000000 0.000000 0.000000
					}
				}
			}
		}
	}
	JOINT rhip
	{
		OFFSET -0.060310 -0.090513 -0.013543
		CHANNELS 3 Zrotation Yrotation Xrotation
		JOINT rknee
		{
			OFFSET -0.043257 -0.383688 -0.004843
			CHANNELS 3 Zrotation Yrotation Xrotation
			JOINT rankle
			{
				OFFSET 0.019056 -0.420046 -0.034562
				CHANNELS 3 Zrotation Yrotation Xrotation
				JOINT rtoe
				{
					OFFSET -0.034840 -0.062106 0.130323
					CHANNELS 3 Zrotation Yrotation Xrotation
					End Site
					{
						OFFSET 0.000000 0.000000 0.000000
					}
				}
			}
		}
	}
	JOINT lowerback
	{
		OFFSET 0.004439 0.124404 -0.038385
		CHANNELS 3 Zrotation Yrotation Xrotation
		JOINT upperback
		{
			OFFSET 0.004488 0.137956 0.026820
			CHANNELS 3 Zrotation Yrotation Xrotation
			JOINT chest
			{
				OFFSET -0.002265 0.056032 0.002855
				CHANNELS 3 Zrotation Yrotation Xrotation
				JOINT lowerneck
				{
					OFFSET -0.013390 0.211636 -0.033468
					CHANNELS 3 Zrotation Yrotation Xrotation
					JOINT upperneck
					{
						OFFSET 0.010113 0.088937 0.050410
						CHANNELS 3 Zrotation Yrotation Xrotation
						End Site
						{
							OFFSET 0.000000 0.000000 0.000000
						}
					}
				}
				JOINT lclavicle
				{
					OFFSET 0.071702 0.114000 -0.018898
					CHANNELS 3 Zrotation Yrotation Xrotation
					JOINT lshoulder
					{
						OFFSET 0.122921 0.045205 -0.019046
						CHANNELS 3 Zrotation Yrotation Xrotation
						JOINT lelbow
						{
							OFFSET 0.255332 -0.015649 -0.022946
							CHANNELS 3 Zrotation Yrotation Xrotation
							JOINT lwrist
							{
								OFFSET 0.265709 0.012698 -0.007375
								CHANNELS 3 Zrotation Yrotation Xrotation
								End Site
								{
									OFFSET 0.000000 0.000000 0.000000
								}
							}
						}
					}
				}
				JOINT rclavicle
				{
					OFFSET -0.082954 0.112472 -0.023707
					CHANNELS 3 Zrotation Yrotation Xrotation
					JOINT rshoulder
					{
						OFFSET -0.113228 0.046853 -0.008472
						CHANNELS 3 Zrotation Yrotation Xrotation
						JOINT relbow
						{
							OFFSET -0.260127 -0.014369 -0.031269
							CHANNELS 3 Zrotation Yrotation Xrotation
							JOINT rwrist
							{
								OFFSET -0.269108 0.006794 -0.006027
								CHANNELS 3 Zrotation Yrotation Xrotation
								End Site
								{
									OFFSET 0.000000 0.000000 0.000000
								}
							}
						}
					}
				}
			}
		}
	}
}
MOTION
Frames: 10
Frame Time: 0.033333
1.954335 -0.097154 0.983881 -5.293190 0.227771 95.555602 6.044128 -2.079590 -6.720622 -9.073575 0.510792 -0.090374 5.074729 1.009133 -10.280052 0.000000 -0.000000 0.000000 -6.520098 -1.143498 -11.021037 7.478238 -6.559044 13.360226 2.552968 4.797241 -9.897749 0.000000 -0.000000 0.000000 -2.492072 2.438039 -4.998200 2.684950 0.078934 3.025474 -2.055372 0.843887 -2.220752 7.593535 -6.910157 -4.652056 4.247204 -17.545924 2.519571 -23.336431 10.851142 3.595163 -59.198455 -6.948206 21.866123 -142.265022 -71.917406 166.464020 -24.775420 -29.103366 -29.857912 21.934351 -5.707236 4.019896 60.394084 4.661366 24.487398 162.018852 69.973260 -170.680802 32.201997 20.158197 -13.874022 
1.954460 -0.096994 0.983870 -5.373858 0.400988 95.545723 6.264086 -2.068790 -6.694278 -9.139151 0.421987 -0.149375 4.960600 1.191259 -10.238717 0.000000 -0.000000 0.000000 -6.322423 -0.710370 -10.875462 7.575323 -6.064845 12.999171 3.048847 3.916860 -9.728550 0.000000 -0.000000 0.000000 -2.154208 2.270599 -4.761619 2.500324 0.285117 2.534481 -2.026744 0.964913 -1.725466 7.833319 -6.749398 -5.526958 3.668819 -17.818510 3.567269 -23.299696 10.956901 3.533690 -59.408776 -7.316754 21.755121 -141.427704 -71.985311 166.314513 -25.068568 -29.465596 -29.592339 21.848293 -5.699822 3.890678 60.564930 4.650356 24.689363 162.430238 70.018994 -169.739216 32.263469 20.375889 -14.477606 
1.954561 -0.097030 0.983948 -5.375005 0.401199 95.566512 6.264144 -2.072870 -6.733656 -9.125608 0.427362 -0.147269 4.964795 1.162937 -10.219190 0.000000 -0.000000 0.000000 -6.326275 -0.653469 -10.848910 7.582481 -6.025170 12.904421 3.168702 3.825659 -9.642533 0.000000 -0.000000 0.000000 -2.146679 2.233266 -4.725179 2.455115 0.294819 2.428139 -2.027514 0.994088 -1.598261 7.981683 -6.691573 -5.734334 3.512055 -17.940414 3.897875 -23.189093 11.035987 3.532871 -59.668688 -7.551262 21.623174 -140.816747 -72.022434 166.252463 -25.823741 -29.566384 -28.781775 21.785612 -5.730631 3.851460 60.748561 4.651010 24.721535 162.392554 70.052166 -169.575725 32.442995 20.491404 -14.659630 
1.954700 -0.096965 0.984131 -5.393235 0.391955 95.581730 6.242459 -2.044387 -6.771502 -9.110601 0.455075 -0.130169 4.977118 1.091882 -10.217096 0.000000 -0.000000 0.000000 -6.347266 -0.644449 -10.883445 7.559370 -6.113305 12.909205 3.230042 3.898259 -9.621254 0.000000 -0.000000 0.000000 -2.057864 2.127794 -4.563437 2.398251 0.216949 2.265490 -2.114970 1.072777 -1.617382 8.046601 -6.580359 -5.753717 3.413329 -17.996995 4.166632 -23.142169 11.217408 3.433157 -59.702418 -7.627102 21.406850 -140.330203 -71.900364 166.314765 -26.752697 -29.650491 -27.669791 21.756682 -5.706022 3.895030 60.923310 4.630454 24.713601 162.201980 70.112237 -169.631154 32.679659 20.608346 -14.639830 
1.954892 -0.096888 0.984255 -5.425229 0.392222 95.588497 6.221496 -2.034238 -6.781164 -9.087230 0.472554 -0.135110 4.981836 1.074239 -10.212969 0.000000 -0.000000 0.000000 -6.354884 -0.629792 -10.905802 7.540245 -6.146085 12.909868 3.257720 3.925930 -9.603214 0.000000 -0.000000 0.000000 -2.026773 2.130459 -4.464973 2.385211 0.256162 2.170959 -2.124733 1.043539 -1.627518 8.027230 -6.595513 -5.764941 3.347762 -18.078620 4.344444 -23.138131 11.296787 3.406927 -59.729852 -7.705968 21.294496 -140.098038 -71.847460 166.392170 -27.339019 -29.718173 -26.986910 21.717622 -5.731035 3.879532 60.972321 4.573952 24.687141 162.153181 70.094377 -169.593187 32.850228 20.677345 -14.573464 
1.955133 -0.096801 0.984357 -5.485994 0.406832 95.592820 6.215651 -2.008506 -6.780994 -9.058009 0.506391 -0.152914 4.989977 1.042400 -10.202504 0.000000 -0.000000 0.000000 -6.364418 -0.615967 -10.939470 7.538964 -6.202061 12.931234 3.301673 3.999976 -9.579472 0.000000 -0.000000 0.000000 -2.003557 2.160108 -4.406880 2.389147 0.317832 2.140315 -2.109820 1.001547 -1.627361 8.034368 -6.596583 -5.750376 3.250479 -18.095213 4.442957 -23.120437 11.384607 3.379517 -59.802018 -7.845125 21.140009 -139.891898 -71.770726 166.627151 -28.150269 -29.775036 -26.013926 21.636864 -5.758464 3.868535 60.989663 4.535867 24.620245 162.110520 70.024865 -169.502956 33.083867 20.753346 -14.437772 
1.955294 -0.096803 0.984468 -5.528574 0.436849 95.592805 6.243569 -1.975162 -6.780523 -9.049875 0.543238 -0.156288 4.973411 0.984165 -10.195036 0.000000 -0.000000 0.000000 -6.350161 -0.621223 -10.952620 7.531265 -6.277498 12.939783 3.353488 4.091815 -9.557552 0.000000 -0.000000 0.000000 -1.963997 2.166303 -4.383068 2.405246 0.337015 2.138686 -2.094604 0.979503 -1.609333 8.026335 -6.577238 -5.737663 3.140455 -18.116201 4.507816 -23.060663 11.541011 3.304148 -59.891101 -7.969469 20.954527 -139.756253 -71.636018 166.986201 -28.994741 -29.847688 -25.035459 21.537375 -5.796534 3.856846 60.969193 4.522615 24.539889 162.076303 69.929373 -169.364967 33.359149 20.807669 -14.255892 
1.955483 -0.096840 0.984626 -5.571179 0.443939 95.600261 6.230026 -1.955918 -6.782987 -9.021558 0.553716 -0.161797 4.969861 0.969220 -10.192152 0.000000 -0.000000 0.000000 -6.344345 -0.639138 -10.968361 7.500970 -6.314359 12.941584 3.398523 4.158263 -9.544465 0.000000 -0.000000 0.000000 -1.932267 2.142901 -4.345047 2.406089 0.339922 2.076738 -2.090175 1.011396 -1.584431 8.013435 -6.543891 -5.693060 3.072644 -18.114746 4.526310 -22.934865 11.750300 3.227808 -59.987182 -8.032470 20.824993 -139.611681 -71.451621 167.252632 -29.501048 -29.854374 -24.391285 21.428854 -5.909049 3.811582 60.951664 4.461829 24.482411 162.050257 69.829204 -169.225683 33.546353 20.774858 -14.028592 
1.955745 -0.096862 0.984716 -5.622219 0.450721 95.613917 6.220591 -1.969766 -6.797100 -9.001709 0.554869 -0.164661 5.000914 1.001162 -10.183314 0.000000 -0.000000 0.000000 -6.351567 -0.655217 -11.004473 7.505101 -6.300661 12.959768 3.446896 4.174526 -9.524450 0.000000 -0.000000 0.000000 -1.940550 2.172991 -4.441833 2.444254 0.367228 2.154865 -2.051630 1.034480 -1.497944 8.001305 -6.536370 -5.672620 3.048983 -18.093211 4.375040 -22.780834 11.901682 3.159761 -60.159661 -8.145772 20.811539 -139.313157 -71.326785 167.164890 -29.615658 -29.773788 -24.238160 21.238948 -6.090003 3.704442 60.906551 4.432829 24.420667 162.078376 69.724950 -169.067034 33.660376 20.613476 -13.769851 
1.956015 -0.097000 0.984888 -5.655127 0.442846 95.661052 6.187997 -2.012763 -6.828825 -8.976371 0.519771 -0.198503 5.028893 1.069710 -10.160395 0.000000 -0.000000 0.000000 -6.359629 -0.696394 -11.050264 7.492039 -6.257588 12.951658 3.526305 4.165374 -9.494348 0.000000 -0.000000 0.000000 -1.924920 2.163124 -4.483154 2.438110 0.417958 2.024698 -2.040178 1.109473 -1.324821 7.963452 -6.571087 -5.678198 3.122686 -18.089301 4.181528 -22.243822 12.356785 2.943813 -60.591242 -8.302883 20.877494 -138.116549 -71.173703 166.103711 -29.773728 -30.003291 -24.978138 20.733738 -6.589605 3.433842 61.062824 4.367138 24.423285 161.597272 69.659127 -169.325271 34.071851 20.391956 -13.529946 
